<svg width="256" height="256" viewBox="0 0 256 256" fill="none" xmlns="http://www.w3.org/2000/svg">
<g clip-path="url(#clip0_1_4)">
<rect width="256" height="256" fill="white"/>
<path fill-rule="evenodd" clip-rule="evenodd" d="M0 0H255.822V91.1304L256 162.087L255.822 256H0L0 0Z" fill="url(#paint0_linear_1_4)"/>
<path d="M31.8215 238.576C26.1422 237.601 22.2854 233.617 21.3106 227.726C20.7596 224.378 20.7596 36.6645 21.3106 33.3162C22.2854 27.2131 26.0998 23.3987 32.1606 22.4239C35.5512 21.8729 177.449 21.8729 180.839 22.4239C186.9 23.3987 190.715 27.2131 191.689 33.3162C192.24 36.6645 192.24 224.378 191.689 227.726C190.715 233.787 186.9 237.601 180.797 238.576C177.788 239.085 34.7459 239.042 31.8215 238.576ZM180.967 227.853L182.153 226.709L182.28 184.326L182.365 141.943H106.5H30.6348L30.7196 184.284C30.8467 225.946 30.8467 226.624 31.6944 227.557C32.1606 228.065 32.9235 228.659 33.3897 228.871C33.8559 229.04 66.9992 229.167 107.009 229.125L179.822 229.04L180.967 227.853ZM63.9053 110.538C75.0944 99.3063 85.0119 89.6006 85.902 88.9225C87.2582 87.9053 87.9787 87.6934 89.8436 87.6934C91.1151 87.6934 92.6408 87.9477 93.2766 88.2867C93.9123 88.6258 96.3281 90.8297 98.6592 93.1608L102.897 97.4414L114.341 86.0405C120.613 79.8102 126.25 74.3428 126.844 73.9613C128.242 73.0713 132.226 73.0713 133.625 73.9613C134.218 74.3428 145.407 85.3623 158.546 98.4586L182.365 122.235V91.3807V60.5684H152.697C127.013 60.5684 122.817 60.4836 121.758 59.9326C120.02 59.0426 119.639 58.1102 119.639 54.8891C119.639 52.6004 119.808 51.9647 120.656 50.9475L121.673 49.7608L152.062 49.6336L182.408 49.5489L182.28 41.9199L182.153 34.291L180.967 33.1467L179.822 31.96H106.5H33.1778L32.0334 33.1467L30.8467 34.291L30.7196 41.9199L30.5924 49.5489H60.3028C81.367 49.5489 90.3098 49.676 90.9455 50.0151C92.7256 50.9051 93.3613 52.1766 93.3613 54.7619C93.3613 57.7711 92.5561 59.4664 90.776 60.1022C89.8436 60.4412 80.4346 60.5684 60.0485 60.5684H30.6348V95.7461V130.924H37.1194H43.5615L63.9053 110.538ZM119.215 130.797C119.215 130.754 112.688 124.185 104.678 116.175L90.1826 101.68L75.5606 116.302L60.9385 130.924H90.0979C106.119 130.924 119.215 130.881 119.215 130.797ZM151.977 109.224L130.234 87.4815L120.91 96.8057L111.586 106.13L123.962 118.506L136.38 130.924H155.028H173.677L151.977 109.224Z" fill="black"/>
<path d="M47.7151 222.471C44.5788 220.563 44.9602 213.952 48.2661 212.723C48.8594 212.468 55.2168 212.299 62.6762 212.299C79.3327 212.299 79.375 212.299 79.375 217.893C79.375 220.733 78.7817 221.92 76.9592 222.852C76.3235 223.149 71.6614 223.318 62.5491 223.318C49.919 223.318 48.9866 223.276 47.7151 222.471Z" fill="black"/>
<path d="M92.3018 222.937C90.3945 222.132 89.7588 220.86 89.7588 217.724C89.7588 214.927 89.8436 214.715 91.1574 213.528L92.5137 212.299H106.33C121.292 212.299 121.927 212.384 122.945 214.63C123.58 216.029 123.623 219.546 122.987 220.945C121.97 223.191 120.91 223.318 106.415 223.276C99.1254 223.276 92.768 223.106 92.3018 222.937Z" fill="black"/>
<path d="M135.914 222.64C135.193 222.301 134.388 221.538 134.091 220.945C133.455 219.546 133.498 216.029 134.134 214.63C135.151 212.384 135.786 212.299 150.748 212.299H164.564L165.921 213.528C167.235 214.715 167.319 214.927 167.319 217.766C167.319 220.479 167.192 220.86 166.133 221.92L164.988 223.106L151.087 223.191C139.219 223.318 137.016 223.234 135.914 222.64Z" fill="black"/>
<path d="M47.7151 205.518C44.5788 203.61 44.9602 196.999 48.2661 195.77C48.8594 195.515 55.2168 195.346 62.6762 195.346C79.3327 195.346 79.375 195.346 79.375 200.94C79.375 203.78 78.7817 204.967 76.9592 205.899C76.3235 206.196 71.6614 206.365 62.5491 206.365C49.919 206.365 48.9866 206.323 47.7151 205.518Z" fill="black"/>
<path d="M92.3018 205.984C90.3945 205.179 89.7588 203.907 89.7588 200.771C89.7588 197.973 89.8436 197.762 91.1574 196.575L92.5137 195.346H106.33C121.292 195.346 121.927 195.43 122.945 197.677C123.58 199.075 123.623 202.593 122.987 203.992C121.97 206.238 120.91 206.365 106.415 206.323C99.1254 206.323 92.768 206.153 92.3018 205.984Z" fill="black"/>
<path d="M135.914 205.687C135.193 205.348 134.388 204.585 134.091 203.992C133.455 202.593 133.498 199.075 134.134 197.677C135.151 195.43 135.786 195.346 150.748 195.346H164.564L165.921 196.575C167.235 197.762 167.319 197.973 167.319 200.813C167.319 203.526 167.192 203.907 166.133 204.967L164.988 206.153L151.087 206.238C139.219 206.365 137.016 206.28 135.914 205.687Z" fill="black"/>
<path d="M47.715 186.869C46.825 186.318 46.2316 185.555 45.935 184.453C45.6383 183.479 45.4688 177.799 45.4688 170.34C45.4688 159.278 45.5535 157.667 46.2316 156.354C47.4607 153.853 47.715 153.811 62.549 153.811C76.8744 153.811 77.8916 153.938 78.9512 155.887C79.2055 156.438 79.375 161.948 79.375 170.848C79.375 183.563 79.2902 185.047 78.6121 185.852C77.1711 187.632 76.5777 187.717 62.549 187.717C49.9613 187.717 48.9865 187.674 47.715 186.869ZM68.3555 170.764V164.83H62.4219H56.4883V170.764V176.697H62.4219H68.3555V170.764Z" fill="black"/>
<path d="M91.6661 187.166C91.0727 186.869 90.2675 185.979 89.8436 185.174C89.1655 183.818 89.1231 182.419 89.2079 170.043L89.3351 156.354L90.5218 155.209L91.6661 154.022L105.525 153.895C115.443 153.811 119.724 153.938 120.571 154.277C123.029 155.294 123.029 155.252 123.029 170.764C123.029 186.149 123.029 186.021 120.614 187.251C119.257 187.929 93.1071 187.886 91.6661 187.166ZM112.01 170.764V164.83H106.076H100.143V170.764V176.697H106.076H112.01V170.764Z" fill="black"/>
<path d="M135.956 187.208C133.625 185.937 133.625 186.106 133.625 170.848C133.625 161.948 133.795 156.438 134.049 155.887C135.108 153.938 136.126 153.811 150.451 153.811C165.285 153.811 165.539 153.853 166.768 156.354C167.446 157.667 167.531 159.278 167.531 170.34C167.531 177.799 167.362 183.479 167.065 184.453C166.768 185.555 166.175 186.318 165.285 186.869C164.013 187.674 163.081 187.717 150.366 187.717C141.339 187.674 136.507 187.547 135.956 187.208ZM156.512 170.764V164.83H150.578H144.645V170.764V176.697H150.578H156.512V170.764Z" fill="black"/>
<path d="M47.2065 98.9248C44.1973 98.0771 42.5444 97.0176 40.2133 94.3898C36.1869 89.9396 35.3817 81.4207 38.3908 75.5719C39.4504 73.5375 42.3748 70.8674 44.9602 69.5959C47.1641 68.4939 47.7574 68.4092 52.25 68.4092C56.6578 68.4092 57.336 68.5363 59.4551 69.5111C66.5754 72.9441 69.6694 81.124 67.0416 89.643C66.2787 92.0588 65.7278 92.9064 63.5662 95.1104C61.7438 96.9328 60.3028 97.95 58.8194 98.4586C55.8526 99.5182 50.0885 99.7301 47.2065 98.9248ZM54.7082 87.0576C55.4287 86.4643 56.1916 85.4471 56.4035 84.7266C56.785 83.7094 56.7002 83.2432 55.9373 82.1412C55.4287 81.3783 54.3692 80.4035 53.6063 79.9373C52.2924 79.1744 52.2076 79.1744 50.8938 79.9373C50.1309 80.4035 49.0713 81.3783 48.5627 82.1412C47.7998 83.2432 47.7151 83.7094 48.0965 84.7266C48.6475 86.4219 50.7666 88.1172 52.25 88.1172C52.9281 88.1172 54.0301 87.651 54.7082 87.0576Z" fill="black"/>
<path d="M103.745 60.1869C101.838 59.3816 101.202 58.1102 101.202 54.9738C101.202 52.1766 101.287 51.9646 102.601 50.7779C103.745 49.7184 104.338 49.5488 106.33 49.5488C110.442 49.5488 112.01 51.0746 112.01 55.0586C112.01 57.7711 111.374 59.085 109.679 59.9326C108.195 60.6107 105.144 60.7379 103.745 60.1869Z" fill="black"/>
<path d="M43.1377 45.6496C41.3576 44.6748 40.8066 43.5305 40.8066 40.6484C40.8066 37.724 41.4 36.5373 43.2225 35.6049C43.8158 35.3082 47.1217 35.1387 52.25 35.1387C62.9729 35.1387 63.6934 35.4777 63.6934 40.7332C63.6934 43.5728 63.1 44.7596 61.2775 45.692C60.0484 46.3277 44.282 46.2853 43.1377 45.6496Z" fill="black"/>
<path d="M96.54 45.7768C94.6328 44.9715 93.9971 43.7 93.9971 40.6061C93.9971 37.9783 94.1242 37.5969 95.1838 36.5373C96.3281 35.393 96.4553 35.3506 102.092 35.2234C108.746 35.0539 109.594 35.1811 110.993 36.7068C111.84 37.5969 112.01 38.2326 112.01 40.3094C112.01 43.3609 111.204 45.0563 109.424 45.692C107.856 46.243 97.8115 46.2854 96.54 45.7768Z" fill="black"/>
<path d="M125.911 45.4801C124.258 44.6325 123.877 43.6576 123.877 40.5637C123.877 35.6473 125.064 35.0116 133.625 35.2235C139.601 35.3506 139.643 35.3506 140.661 36.5373C141.508 37.5121 141.678 38.1903 141.678 40.4789C141.678 45.5225 140.703 46.1582 132.693 46.1582C128.539 46.1159 126.759 45.9463 125.911 45.4801Z" fill="black"/>
<path d="M156.3 45.7768C154.52 45.0139 153.799 43.6576 153.63 40.8604C153.46 38.1902 153.503 38.0631 154.944 36.6221L156.427 35.1387H162.657H168.888L170.371 36.6221C171.812 38.0631 171.854 38.1902 171.685 40.8604C171.558 43.1914 171.346 43.8271 170.371 44.802C169.227 45.9463 169.142 45.9463 163.166 46.0311C159.86 46.0734 156.766 45.9887 156.3 45.7768Z" fill="black"/>
<path d="M55.2168 170.764V163.559H62.4219H69.627V170.764V177.969H62.4219H55.2168V170.764Z" fill="#14B4B7"/>
<path d="M122.054 119.141L109.043 106.13L119.639 95.5342L130.234 84.9385L153.884 108.588L177.491 132.195H156.3H135.108L122.054 119.141Z" fill="#14B4B7"/>
<path d="M143.373 170.764V163.559H150.578H157.783V170.764V177.969H150.578H143.373V170.764Z" fill="#FC4D0D"/>
<path d="M98.8711 170.764V163.559H106.076H113.281V170.764V177.969H106.076H98.8711V170.764Z" fill="#FEC754"/>
<path d="M49.7494 89.092C45.4688 86.8457 45.2568 81.2935 49.368 78.793C52.0805 77.14 55.5559 78.1148 57.3359 80.9969C60.218 85.7437 54.6658 91.6773 49.7494 89.092Z" fill="#FEC754"/>
<path d="M92.0899 54.9738C92.0899 53.448 91.1574 52.0494 89.674 51.2865C89.0383 50.9475 80.0955 50.8203 59.0313 50.8203H29.3209L29.4481 41.9199L29.5752 33.0195L30.7619 31.8752L31.9063 30.6885H106.5H181.094L182.238 31.8752L183.425 33.0195L183.552 41.9199L183.679 50.8203L153.333 50.9051L122.945 51.0322L121.927 52.2189C121.292 52.9818 120.91 53.9566 120.91 54.8891V56.3301H115.824H110.738V55.2705C110.738 52.8123 108.746 50.8203 106.288 50.8203C105.695 50.8203 104.635 51.3713 103.872 52.007C102.855 52.9395 102.516 53.6176 102.516 54.7619L102.474 56.3301H97.303H92.0899V54.9738ZM60.0061 44.4205C62.1676 43.3186 63.1 40.5637 61.9981 38.4869C61.0657 36.7492 59.4551 36.4102 52.25 36.4102C48.0541 36.4102 45.0449 36.5797 44.494 36.8764C41.3153 38.4869 41.2729 42.6828 44.4092 44.3781C45.5535 45.0139 58.777 45.0563 60.0061 44.4205ZM108.153 44.4205C110.696 43.5305 111.544 39.9703 109.721 37.9783C108.365 36.4949 107.348 36.3254 102.092 36.4949C97.8539 36.6221 97.5573 36.7068 96.4553 37.7664C94.3785 39.8432 95.0991 43.3609 97.8116 44.5053C99.083 45.0139 106.585 44.9715 108.153 44.4205ZM138.287 44.251C138.965 43.9119 139.728 43.2338 139.982 42.81C140.745 41.3266 140.491 39.0803 139.389 37.8088C138.414 36.6645 138.202 36.6221 133.625 36.4949C127.14 36.283 125.148 37.2154 125.148 40.5637C125.148 43.9119 126.759 44.8443 132.693 44.8867C135.787 44.8867 137.439 44.7172 138.287 44.251ZM169.015 43.5729C169.608 42.9795 170.201 41.7928 170.371 40.9451C170.583 39.5889 170.413 39.2074 169.099 37.8936L167.616 36.4102H162.657H157.698L156.215 37.8936C154.901 39.2074 154.732 39.5889 154.944 40.9451C155.24 42.5557 156.215 43.9119 157.571 44.5053C158.038 44.7172 160.58 44.8443 163.166 44.7596C167.658 44.6748 167.997 44.59 169.015 43.5729Z" fill="#B0D8DE"/>
<path d="M57.3359 132.068C57.3359 132.026 64.7105 124.609 73.7805 115.539L90.1826 99.1367L106.712 115.666L123.241 132.195H90.2674C72.1699 132.195 57.3359 132.153 57.3359 132.068Z" fill="#75DBDD"/>
<path d="M32.1182 230.142C31.652 229.93 30.8891 229.337 30.4229 228.828C29.5752 227.896 29.5752 227.218 29.448 184.284L29.3633 140.672H106.5H183.637L183.552 184.326L183.425 227.98L182.238 229.125L181.094 230.312L107.009 230.396C66.2787 230.439 32.5844 230.312 32.1182 230.142ZM75.6877 221.581C77.934 220.436 78.824 217.342 77.4678 215.435C76.2387 213.655 75.0943 213.528 61.9133 213.655C50.4275 213.782 49.2832 213.867 48.5203 214.545C46.4012 216.452 46.6555 219.801 48.9865 221.199C50.258 222.004 51.1904 222.047 62.549 222.047C70.7289 222.047 75.0943 221.877 75.6877 221.581ZM119.851 221.411C121.97 220.394 122.69 218.148 121.673 215.901C120.656 213.697 119.893 213.57 106.33 213.57H93.7852L92.4289 214.799C91.2846 215.817 91.0303 216.325 91.0303 217.724C91.0303 219.504 92.0051 220.987 93.5732 221.665C94.0395 221.835 99.8459 222.004 106.415 222.004C116.46 222.047 118.664 221.92 119.851 221.411ZM164.861 220.648C166.599 218.953 166.514 216.452 164.649 214.799L163.293 213.57H150.79C137.355 213.57 136.549 213.697 135.49 215.732C134.346 217.978 135.024 220.309 137.185 221.369C138.287 221.962 140.364 222.047 151.087 221.92L163.717 221.835L164.861 220.648ZM75.6877 204.628C77.934 203.483 78.824 200.389 77.4678 198.482C76.2387 196.702 75.0943 196.575 61.9133 196.702C50.4275 196.829 49.2832 196.914 48.5203 197.592C46.4012 199.499 46.6555 202.847 48.9865 204.246C50.258 205.051 51.1904 205.094 62.549 205.094C70.7289 205.094 75.0943 204.924 75.6877 204.628ZM119.851 204.458C121.97 203.441 122.69 201.195 121.673 198.948C120.656 196.744 119.893 196.617 106.33 196.617H93.7852L92.4289 197.846C91.2846 198.863 91.0303 199.372 91.0303 200.771C91.0303 202.551 92.0051 204.034 93.5732 204.712C94.0395 204.882 99.8459 205.051 106.415 205.051C116.46 205.094 118.664 204.967 119.851 204.458ZM164.861 203.695C166.599 202 166.514 199.499 164.649 197.846L163.293 196.617H150.79C137.355 196.617 136.549 196.744 135.49 198.779C134.346 201.025 135.024 203.356 137.185 204.416C138.287 205.009 140.364 205.094 151.087 204.967L163.717 204.882L164.861 203.695ZM75.6877 185.979C78.1035 184.75 78.1035 184.75 78.1035 170.848C78.1035 162.838 77.934 157.667 77.6797 157.159C76.6201 155.252 75.5182 155.082 62.549 155.082C49.1137 155.082 48.7322 155.167 47.5031 157.625C46.825 158.939 46.7402 160.507 46.7402 170.34C46.7402 176.909 46.9098 182.249 47.2064 183.182C47.5031 184.284 48.0965 185.047 48.9865 185.598C50.258 186.403 51.1904 186.445 62.549 186.445C70.7289 186.445 75.0943 186.276 75.6877 185.979ZM119.342 185.979C121.758 184.75 121.758 184.75 121.758 170.764C121.758 156.65 121.758 156.565 119.3 155.548C118.452 155.209 114.51 155.082 105.525 155.167L92.9375 155.294L91.7932 156.481L90.6064 157.625L90.4793 170.043C90.3945 181.232 90.4369 182.546 91.115 183.902C91.5389 184.708 92.3441 185.598 92.9375 185.894C94.3361 186.615 117.986 186.657 119.342 185.979ZM164.013 185.598C164.904 185.047 165.497 184.284 165.794 183.182C166.09 182.249 166.26 176.909 166.26 170.34C166.26 160.507 166.175 158.939 165.497 157.625C164.268 155.167 163.886 155.082 150.451 155.082C137.482 155.082 136.38 155.252 135.32 157.159C135.066 157.667 134.896 162.838 134.896 170.848C134.896 182.377 134.981 183.775 135.659 184.58C137.1 186.361 137.651 186.403 150.366 186.445C161.81 186.445 162.742 186.403 164.013 185.598Z" fill="#D8D8D8"/>
<path d="M29.3633 95.7461V59.2969H58.8193C91.6236 59.2969 90.6912 59.3816 91.7084 56.5844L92.2594 55.0586H97.2182C102.007 55.0586 102.219 55.101 102.474 56.0334C102.94 57.432 104.338 58.7883 105.695 59.085C107.517 59.5088 109.763 58.2373 110.399 56.4996L110.908 55.0586H115.867H120.825L121.037 56.3301C121.207 57.1354 121.8 57.8982 122.69 58.4492C124.046 59.2545 124.852 59.2969 153.884 59.2969H183.637V92.6521V126.05L158.122 100.535C140.957 83.4127 132.184 74.9361 131.421 74.7666C130.743 74.5971 129.726 74.5971 129.09 74.7666C128.327 74.9361 123.496 79.4287 115.4 87.4814L102.897 99.942L97.5996 94.6865C92.217 89.3887 91.0303 88.6258 88.8264 89.1768C88.0211 89.3463 80.5193 96.5514 66.2363 110.834L44.833 132.195H37.077H29.3633V95.7461ZM57.5479 97.1871C59.0313 96.6785 60.4299 95.7037 62.2947 93.8389C64.4563 91.635 65.0072 90.7873 65.7701 88.3715C66.8297 84.9809 66.8721 83.2432 66.0668 80.1068C64.9648 75.9957 62.1676 72.7322 58.1836 70.7826C56.234 69.8502 55.2592 69.6807 52.25 69.6807C49.1561 69.6807 48.3084 69.8502 46.2316 70.8674C43.6463 72.1389 40.7219 74.809 39.6623 76.8434C38.7299 78.6234 37.8398 82.0988 37.8398 83.9213C37.8398 86.8457 39.408 90.8297 41.4848 93.1184C43.8158 95.7461 45.4688 96.8057 48.4779 97.6533C51.148 98.3738 54.4963 98.2043 57.5479 97.1871Z" fill="white"/>
<g clip-path="url(#clip1_1_4)">
<path d="M193.371 192.615C193.142 192.15 193.186 191.396 193.469 190.945C193.696 190.582 193.527 189.802 193.175 189.582C192.834 189.368 192.95 189.134 193.568 188.833C194.015 188.608 195.099 188.491 195.341 188.643C195.407 188.684 195.385 188.915 195.291 189.163C195.089 189.68 195.341 190.328 195.869 190.659C196.331 190.948 196.592 191.801 196.392 192.365C196.194 192.9 195.659 193.437 195.439 193.299C195.351 193.244 195.265 193.282 195.243 193.391C195.199 193.608 194.344 193.531 193.904 193.255C193.739 193.152 193.493 192.86 193.371 192.615Z" fill="#4B4C58"/>
<path d="M192.924 222.17C192.845 222.029 192.699 220.161 192.621 218.013C192.549 215.809 192.402 214.016 192.3 213.861C192.067 213.5 191.682 213.259 191.432 213.316C191.289 213.349 191.102 213.232 190.739 212.882C190.473 212.623 189.463 211.913 188.507 211.313C187.121 210.444 186.768 210.177 186.837 210.067C186.892 209.979 186.871 209.721 186.813 209.47L186.693 209.027L179.956 204.725L173.208 200.417L172.888 199.803C172.717 199.466 172.562 199.078 172.536 198.924C172.512 198.694 172.563 198.71 173.029 199.018C173.722 199.499 174.614 199.568 175.371 199.215L175.968 198.947L183.33 187.329L190.7 175.7L191.421 175.234C192.33 174.639 193.637 174.387 194.675 174.563L195.46 174.703L217.425 188.402C234.195 198.857 239.466 202.102 239.704 202.113C240.284 202.14 241.353 201.754 241.679 201.406C242.115 200.93 242.536 201.163 242.48 201.863C242.46 202.31 241.947 203.152 233.976 215.935C228 225.513 225.359 229.676 225.023 230.017C224.421 230.635 223.498 231.006 222.609 230.984L221.906 230.957L212.637 225.221L203.369 219.485L202.633 219.437C202.24 219.405 201.719 219.43 201.508 219.497C201.293 219.547 199.536 220.298 197.594 221.147C195.67 221.993 193.936 222.682 193.756 222.676C193.355 222.655 193.146 222.524 192.924 222.17Z" fill="#FC4D0D"/>
<path d="M172.575 198.886C172.263 197.527 171.749 198.445 181.413 183.109L190.022 169.455L190.546 169.156C191.269 168.736 192.378 168.604 193.161 168.82C194.144 169.084 240.995 198.466 241.661 199.236C242.156 199.791 242.557 200.885 242.506 201.527C242.47 201.903 242.456 201.925 242.304 201.752C242.167 201.605 242.063 201.648 241.808 201.932C241.476 202.29 240.414 202.666 239.827 202.65C239.589 202.638 234.318 199.394 217.548 188.938L195.583 175.24L194.798 175.1C193.76 174.923 192.453 175.176 191.544 175.77L190.823 176.237L183.453 187.865L176.091 199.483L175.487 199.763C175.06 199.955 174.676 200.005 174.152 199.937C172.858 199.753 172.755 199.673 172.575 198.886Z" fill="#FF8254"/>
<path d="M190.538 195.448C189.324 194.135 188.634 192.646 188.213 190.437C187.945 188.982 187.948 188.709 188.314 188.785C188.43 188.796 188.75 188.675 189.048 188.494C189.809 188.038 190.575 187.768 192.421 187.317C193.908 186.948 194.036 186.89 194.17 186.53C194.304 186.17 194.34 186.162 195.059 186.26C196.277 186.442 197.057 186.763 198.187 187.548C200.255 189.014 201.481 191.406 201.82 194.651C201.984 196.27 202.057 196.178 200.068 196.907C196.208 198.3 192.676 197.754 190.538 195.448Z" fill="#CBE3FA"/>
<path d="M187.978 188.467L187.945 187.542L189.131 187.092C189.779 186.839 190.818 186.526 191.441 186.411C192.501 186.188 194.413 186.069 194.633 186.207C194.688 186.242 194.693 186.429 194.662 186.624C194.542 187.207 194.028 187.513 192.665 187.807C191.223 188.128 189.932 188.574 189.202 189.005C188.93 189.171 188.542 189.326 188.359 189.349C188.022 189.398 188.006 189.373 187.978 188.467Z" fill="#EEF7FF"/>
<path d="M210.696 197.804C210.921 197.446 211.22 197.269 211.594 197.273L215.021 197.231C215.333 197.235 215.575 197.291 215.746 197.398C216.005 197.561 216.171 197.799 216.243 198.113C216.315 198.427 216.27 198.714 216.107 198.973L209.995 208.719C209.833 208.978 209.594 209.144 209.28 209.216C208.97 209.282 208.685 209.234 208.425 209.072C208.166 208.909 207.999 208.674 207.923 208.365C207.851 208.051 207.897 207.764 208.059 207.505L213.118 199.439L211.718 199.483C211.488 199.507 211.265 199.452 211.05 199.317C210.796 199.158 210.633 198.929 210.559 198.629C210.491 198.333 210.537 198.058 210.696 197.804ZM212.105 210.042L218.217 200.296C218.379 200.037 218.615 199.87 218.924 199.794C219.238 199.722 219.524 199.767 219.784 199.93C220.164 200.169 220.34 200.532 220.31 201.021L219.864 209.709L227.491 205.524C227.918 205.285 228.322 205.285 228.702 205.523C228.961 205.686 229.124 205.922 229.191 206.233C229.263 206.547 229.217 206.834 229.055 207.093L222.943 216.839C222.78 217.098 222.542 217.264 222.228 217.336C221.923 217.406 221.641 217.359 221.381 217.197C221.122 217.034 220.955 216.799 220.879 216.49C220.807 216.176 220.853 215.889 221.015 215.63L224.886 209.458L219.254 212.52C218.886 212.727 218.511 212.711 218.131 212.473C217.75 212.234 217.573 211.904 217.599 211.482L217.903 205.079L214.033 211.251C213.87 211.51 213.632 211.676 213.318 211.748C213.007 211.814 212.722 211.766 212.463 211.604C212.203 211.441 212.036 211.206 211.961 210.897C211.894 210.586 211.942 210.301 212.105 210.042Z" fill="black"/>
<path d="M191.156 223.329C190.949 222.999 190.723 222.505 190.679 222.233C190.572 221.599 190.318 214.042 190.408 213.899C190.442 213.844 190.614 213.692 190.773 213.561C191.016 213.392 191.049 213.291 190.971 213.073C190.867 212.824 190.881 212.802 191.186 212.779C191.563 212.74 192.573 213.327 192.837 213.738C192.938 213.893 193.079 215.697 193.162 217.908C193.24 220.055 193.355 221.874 193.411 221.955C193.479 222.043 193.611 222.126 193.719 222.148C193.817 222.164 195.462 221.495 197.368 220.653C201.515 218.828 201.55 218.819 202.499 218.894L203.246 218.948L212.515 224.684L221.783 230.42L222.486 230.448C223.376 230.47 224.298 230.098 224.9 229.48C225.236 229.14 227.822 225.064 233.646 215.728L241.921 202.462L241.961 201.859C242.025 201.026 241.66 199.97 241.125 199.359C240.459 198.589 194.267 169.621 193.284 169.356C192.501 169.141 191.392 169.272 190.669 169.692L190.145 169.991L181.805 183.217C175.868 192.635 173.394 196.628 173.227 197.09C172.926 197.912 172.999 198.846 173.41 199.655L173.745 200.294L180.493 204.602L187.23 208.904L187.35 209.347C187.476 209.855 187.187 210.486 186.913 210.313C186.825 210.258 186.699 210.287 186.637 210.386C186.582 210.474 186.295 210.615 185.997 210.674L185.472 210.804L178.699 206.51L171.926 202.217L171.454 201.553C170.537 200.304 170.164 198.554 170.484 196.993L170.642 196.204L178.986 182.827C184.534 173.931 187.552 169.192 187.994 168.658C188.833 167.637 189.686 167.084 190.876 166.774C191.923 166.496 192.722 166.492 193.719 166.734C194.328 166.886 196.402 168.172 218.769 182.23L243.152 197.567L243.631 198.22C244.283 199.134 244.715 200.814 244.596 201.98C244.536 202.54 244.357 203.193 244.064 203.806C243.776 204.437 240.817 209.228 235.224 218.097L226.815 231.432L226.174 231.918C224.908 232.886 223.17 233.312 221.647 233.031L220.844 232.895L211.685 227.228C206.652 224.117 202.429 221.545 202.307 221.545C202.18 221.527 200.468 222.23 198.495 223.106C196.51 223.975 194.605 224.741 194.261 224.801C193.078 224.978 191.83 224.379 191.156 223.329Z" fill="black"/>
<path d="M188.707 197.44C186.524 195.229 185.297 192.008 185.22 188.223C185.187 186.885 185.202 186.787 185.616 186.128C186.029 185.468 186.093 185.416 187.373 184.84C189.705 183.807 192.215 183.297 194.369 183.453C196.222 183.574 196.974 183.816 198.779 184.871C200.579 185.908 201.242 186.462 202.207 187.757C203.598 189.594 204.578 192.72 204.653 195.555C204.698 197.023 204.691 197.034 204.226 197.676C203.814 198.26 203.652 198.373 202.347 198.964C199.136 200.396 196.037 200.796 193.324 200.09C192.135 199.788 189.584 198.311 188.707 197.44ZM193.945 196.926C194.913 197.166 196.555 197.185 197.859 196.961C198.73 196.818 201.191 195.972 201.308 195.785C201.349 195.719 201.325 195.122 201.249 194.462C200.845 190.93 198.954 187.937 196.606 187.139C194.563 186.44 191.8 186.621 189.225 187.625L188.498 187.905L188.529 188.613C188.563 189.707 188.996 191.678 189.409 192.657C189.906 193.842 190.298 194.486 191.074 195.325C191.861 196.171 192.647 196.602 193.945 196.926Z" fill="black"/>
<path d="M191.18 194.35C190.941 194.047 190.717 193.477 190.577 192.869C190.307 191.689 190.47 190.842 191.194 189.687C191.608 189.028 191.724 188.917 192.11 188.837C192.493 188.74 192.645 188.79 193.272 189.183C193.909 189.583 194.01 189.692 194.082 190.089C194.132 190.351 194.095 190.679 194.005 190.822C193.35 191.867 194.067 193.434 194.944 192.866C195.082 192.769 195.261 192.728 195.338 192.776C195.536 192.9 195.938 192.479 195.96 192.125C195.998 191.674 195.662 190.989 195.311 190.768C194.827 190.465 194.56 189.792 194.727 189.33C195.311 187.812 196.265 187.537 197.48 188.529C198.799 189.601 199.343 190.785 199.19 192.251C199.109 192.966 199.029 193.192 198.484 194.06C198.139 194.61 197.674 195.206 197.445 195.399C196.827 195.946 195.642 196.321 194.719 196.278C193.965 196.234 193.813 196.185 192.733 195.538C191.872 195.029 191.46 194.709 191.18 194.35Z" fill="black"/>
</g>
</g>
<defs>
<linearGradient id="paint0_linear_1_4" x1="162.095" y1="405.824" x2="475.362" y2="95.325" gradientUnits="userSpaceOnUse">
<stop stop-color="#FEC754"/>
<stop offset="0.278014" stop-color="#FFDB8E"/>
<stop offset="0.475432" stop-color="#F8D58B"/>
<stop offset="0.640625" stop-color="#FED47C"/>
<stop offset="0.82488" stop-color="#EBD7AD"/>
<stop offset="1" stop-color="#0061FF"/>
<stop offset="1" stop-color="#FEC754"/>
</linearGradient>
<clipPath id="clip0_1_4">
<rect width="256" height="256" fill="white"/>
</clipPath>
<clipPath id="clip1_1_4">
<rect width="66.4351" height="66.4351" fill="white" transform="translate(194.889 157.42) rotate(32.0932)"/>
</clipPath>
</defs>
</svg>
